<svg width="2000" height="513" viewBox="0 0 2000 513" fill="none" xmlns="http://www.w3.org/2000/svg">
  <path fill-rule="evenodd" clip-rule="evenodd"
    d="M393.55 46.75C393.55 49.0852 393.108 51.3246 392.32 53.3727C403.544 55.6313 412 65.527 412 77.375C412 90.9074 400.988 101.875 387.4 101.875H316.675C301.396 101.875 289 89.5293 289 74.3125C289 62.2922 296.726 52.0711 307.488 48.3004C307.469 47.7836 307.45 47.2668 307.45 46.75C307.45 29.8297 321.211 16.125 338.2 16.125C349.597 16.125 359.533 22.2883 364.856 31.4758C367.778 29.5234 371.314 28.375 375.1 28.375C385.286 28.375 393.55 36.6055 393.55 46.75ZM557.8 119.636C558.409 118.048 558.75 116.311 558.75 114.5C558.75 106.633 552.367 100.25 544.5 100.25C541.576 100.25 538.845 101.141 536.588 102.655C532.477 95.5297 524.802 90.75 516 90.75C502.878 90.75 492.25 101.378 492.25 114.5C492.25 114.901 492.265 115.302 492.28 115.702C483.967 118.627 478 126.553 478 135.875C478 147.676 487.574 157.25 499.375 157.25H554C564.495 157.25 573 148.745 573 138.25C573 129.062 566.469 121.388 557.8 119.636ZM441.69 173.31L635.73 470.91C647.46 488.91 633.64 512 611.14 512H30.92C6.81001 512 -7.98998 486.81 4.58002 467.18L212.48 142.52C224.88 123.16 255.12 123.16 267.52 142.52L338.33 253.07L398.23 346.61C400.61 350.33 405.56 351.41 409.28 349.03L422.74 340.41C426.46 338.03 427.54 333.08 425.16 329.36L357.48 223.68L390.32 173.31C401.89 155.56 430.12 155.56 441.69 173.31ZM804.324 512.001H818.07L818.102 512.001H853.886C856.568 512.001 857.983 508.757 856.211 506.713L847.793 497.001H851.168C853.568 497.001 854.871 494.263 853.343 492.454L844.446 482.001H848.646C850.643 482.001 851.73 479.892 850.455 478.504L837.808 464.77C836.871 463.748 835.127 463.748 834.189 464.77L831.198 468.021L825.438 461.818C824.433 460.732 822.565 460.732 821.56 461.818L808.02 476.41C806.654 477.885 807.819 480.126 809.959 480.126H814.459L804.916 491.232C803.279 493.155 804.675 496.063 807.247 496.063H810.863L801.843 506.383C799.934 508.564 801.461 512.001 804.324 512.001ZM1967.01 497.627L1975.23 506.935C1976.96 508.893 1975.58 512.002 1972.96 512.002H1955.37L1955.33 512.002H1924.66C1922.37 512.002 1921.15 509.307 1922.67 507.596L1929.89 499.502H1927C1924.94 499.502 1923.82 497.221 1925.13 495.713L1932.77 487.002H1929.17C1927.45 487.002 1926.52 485.244 1927.61 484.088L1938.45 472.643C1939.25 471.791 1940.74 471.791 1941.55 472.643L1944.89 476.171L1953.73 466.738C1954.65 465.759 1956.35 465.759 1957.26 466.738L1969.61 479.901C1970.85 481.23 1969.79 483.252 1967.84 483.252H1963.74L1972.43 493.269C1973.92 495.003 1972.65 497.627 1970.31 497.627H1967.01ZM1028.88 512.001H1013.1C1010.43 512.001 1009.01 508.767 1010.79 506.713L1019.21 497.001H1015.83C1013.43 497.001 1012.13 494.263 1013.66 492.454L1022.56 482.001H1018.36C1016.36 482.001 1015.28 479.892 1016.55 478.504L1029.19 464.77C1030.13 463.748 1031.87 463.748 1032.81 464.77L1035.52 467.71L1049.22 452.962C1050.4 451.685 1052.6 451.685 1053.78 452.962L1069.74 470.13C1071.35 471.864 1069.98 474.501 1067.46 474.501H1062.16L1073.38 487.567C1075.31 489.829 1073.67 493.251 1070.64 493.251H1066.38L1077 505.392C1079.24 507.946 1077.45 512.001 1074.07 512.001H1028.91L1028.88 512.001ZM1127.14 506.273L1117.92 495.751H1121.61C1124.24 495.751 1125.67 492.786 1123.99 490.826L1114.25 479.501H1118.85C1121.04 479.501 1122.23 477.216 1120.83 475.713L1106.98 460.834C1105.95 459.727 1104.04 459.727 1103.02 460.834L1089.18 475.713C1087.78 477.216 1088.97 479.501 1091.16 479.501H1095.76L1086 490.826C1084.33 492.786 1085.76 495.751 1088.38 495.751H1092.08L1082.86 506.273C1080.91 508.497 1082.47 512.001 1085.4 512.001H1124.59C1127.53 512.001 1129.08 508.487 1127.14 506.273ZM1388.53 489.687L1396.44 498.701C1397.03 499.377 1397.17 500.304 1396.79 501.117C1396.42 501.919 1395.6 502.437 1394.71 502.437H1381.17V504.873L1384.16 509.694C1384.69 510.754 1383.92 512.001 1382.75 512.001H1373.25C1372.08 512.001 1371.31 510.754 1371.84 509.694L1374.83 504.873V502.437H1361.29C1360.4 502.437 1359.58 501.919 1359.21 501.117C1358.83 500.304 1358.97 499.377 1359.56 498.701L1367.47 489.687H1364.44C1363.55 489.687 1362.76 489.189 1362.38 488.387C1362.01 487.586 1362.13 486.668 1362.71 485.993L1370.44 476.937H1367.58C1366.68 476.937 1365.87 476.404 1365.51 475.582C1365.17 474.772 1365.33 473.83 1365.93 473.183L1376.85 461.481C1377.44 460.838 1378.56 460.838 1379.15 461.481L1390.07 473.183C1390.67 473.83 1390.83 474.772 1390.49 475.582C1390.13 476.404 1389.32 476.937 1388.42 476.937H1385.56L1393.29 485.991C1393.87 486.667 1393.99 487.586 1393.62 488.386C1393.24 489.189 1392.45 489.687 1391.56 489.687H1388.53ZM1750.98 300.259L1873.83 491.009C1875.16 493.066 1875.9 495.443 1875.99 497.887C1876.08 500.332 1875.51 502.755 1874.33 504.902C1871.94 509.279 1867.34 512 1862.35 512H1676.75H1616.65H1616.65H1474.25C1472.23 512 1470.25 511.457 1468.51 510.426C1466.77 509.395 1465.34 507.916 1464.37 506.143C1463.41 504.37 1462.93 502.368 1463.01 500.349C1463.08 498.33 1463.69 496.367 1464.79 494.668L1566.04 337.168C1568.11 333.948 1571.67 332 1575.5 332C1579.33 332 1582.89 333.948 1584.96 337.168L1644.55 429.858L1728.02 300.259C1730.53 296.359 1734.85 294 1739.5 294C1744.14 294 1748.47 296.359 1750.98 300.259ZM1775.92 389.375L1739.5 332.823L1695.96 400.42L1712.2 416.625L1739.5 389.375H1775.92ZM1575.5 364.055L1605.52 410.75H1575.5L1553 433.25L1539.62 419.87L1575.5 364.055ZM1489.45 169.25C1489.45 171.871 1488.96 174.385 1488.08 176.684C1500.58 179.219 1510 190.326 1510 203.625C1510 218.814 1497.73 231.125 1482.6 231.125H1403.82C1386.81 231.125 1373 217.268 1373 200.188C1373 186.695 1381.61 175.223 1393.59 170.99C1393.57 170.41 1393.55 169.83 1393.55 169.25C1393.55 150.258 1408.88 134.875 1427.8 134.875C1440.49 134.875 1451.56 141.793 1457.49 152.105C1460.74 149.914 1464.68 148.625 1468.9 148.625C1480.25 148.625 1489.45 157.863 1489.45 169.25Z"
    fill="#AAD7DA" />
</svg>