<svg width="2000" height="188" viewBox="0 0 2000 188" fill="none" xmlns="http://www.w3.org/2000/svg">
<path fill-rule="evenodd" clip-rule="evenodd" d="M1417.28 105.624H1406.18L1435.14 138.497C1437.32 140.964 1437.81 144.343 1436.43 147.311C1435.07 150.235 1432.08 152.124 1428.82 152.124H1379.2V161.006L1390.18 178.589C1392.11 182.454 1389.3 187.003 1384.99 187.003H1350.21C1345.9 187.003 1343.09 182.454 1345.02 178.589L1356 161.006V152.124H1306.39C1303.12 152.124 1300.13 150.235 1298.77 147.311C1297.39 144.343 1297.89 140.964 1300.06 138.497L1329.02 105.624H1317.92C1314.65 105.624 1311.76 103.808 1310.39 100.883C1309.01 97.9589 1309.47 94.6131 1311.57 92.15L1339.9 59.1241H1329.43C1326.13 59.1241 1323.15 57.1806 1321.86 54.1799C1320.59 51.2264 1321.19 47.7897 1323.4 45.432L1363.37 2.75377C1365.56 0.410608 1369.64 0.410608 1371.83 2.75377L1411.8 45.432C1414.01 47.7897 1414.61 51.2264 1413.34 54.1799C1412.05 57.1806 1409.07 59.1241 1405.77 59.1241H1395.3L1423.62 92.1428C1425.74 94.6094 1426.19 97.9589 1424.81 100.88C1423.44 103.808 1420.55 105.624 1417.28 105.624ZM1498.98 105.624L1527.94 138.497C1530.11 140.964 1530.61 144.343 1529.23 147.311C1527.87 150.235 1524.88 152.124 1521.62 152.124H1472V161.006L1482.98 178.586C1484.91 182.451 1482.1 186.999 1477.79 186.999H1443.01C1438.7 186.999 1435.89 182.451 1437.82 178.586L1448.8 161.003V140.495C1448.7 136.261 1447.22 134.598 1444.49 131.525L1444.49 131.525C1444.29 131.292 1444.07 131.05 1443.85 130.799L1428.76 113.671C1431.54 111.731 1433.81 109.061 1435.33 105.831C1438.63 98.8235 1437.5 90.4753 1432.45 84.572L1417.39 67.0182C1420.25 64.9657 1422.56 62.1466 1424.01 58.779C1426.78 52.3635 1425.73 45.1233 1421.71 39.5396L1456.17 2.75377C1458.36 0.410608 1462.44 0.410608 1464.63 2.75377L1504.6 45.432C1506.81 47.7897 1507.41 51.2264 1506.14 54.1799C1504.85 57.1806 1501.87 59.1241 1498.57 59.1241H1488.1L1516.42 92.1428C1518.54 94.6094 1518.99 97.9589 1517.61 100.88C1516.24 103.808 1513.35 105.624 1510.08 105.624H1498.98ZM710.488 170.146L683.628 139.188H694.396C702.053 139.188 706.21 130.462 701.335 124.694L672.95 91.375H686.35C692.721 91.375 696.19 84.6514 692.122 80.2287L651.773 36.4504C648.782 33.1931 643.218 33.1931 640.227 36.4504L599.908 80.2287C595.84 84.6514 599.309 91.375 605.68 91.375H619.08L590.665 124.694C585.79 130.462 589.947 139.188 597.604 139.188H608.372L581.513 170.146C575.83 176.69 580.376 187 588.901 187H703.07C711.624 187 716.141 176.661 710.488 170.146ZM1331.18 183.375H1329.43C1330.46 182.333 1331.18 180.989 1331.18 179.75C1331.18 178.246 1329.93 176.759 1328.47 176.29V170.688H1331.18C1332.33 170.688 1333.2 169.616 1332.96 168.486C1332.37 165.727 1330.43 163.438 1327.55 163.438V161.625C1324.84 161.625 1323.35 165.178 1322.49 167.759L1318.79 178.89C1318.71 179.127 1318.45 179.256 1318.22 179.177L1317.36 178.891C1317.12 178.812 1316.99 178.555 1317.07 178.318L1319.03 172.435C1321.7 164.394 1316.13 158 1311.25 158C1307.24 158 1304 161.246 1304 165.25C1304 169.254 1307.24 172.5 1311.25 172.5C1311.26 172.5 1311.28 172.495 1311.29 172.495C1310.11 174.063 1309.39 176.005 1309.44 178.133C1309.55 183.142 1313.96 187 1318.97 187H1332.08C1332.58 187 1332.99 186.594 1332.99 186.094V185.188C1332.99 184.187 1332.18 183.375 1331.18 183.375ZM1328.46 166.156C1328.96 166.156 1329.37 166.562 1329.37 167.062C1329.37 167.563 1328.96 167.969 1328.46 167.969C1327.96 167.969 1327.55 167.563 1327.55 167.062C1327.55 166.562 1327.96 166.156 1328.46 166.156ZM1857.86 180.6L1843.37 175.975L1857.86 171.349C1858.72 171.076 1859.19 170.148 1858.93 169.275L1857.96 166.113C1857.69 165.24 1856.78 164.753 1855.93 165.026L1832.5 172.504L1809.07 165.026C1808.22 164.753 1807.31 165.24 1807.04 166.113L1806.07 169.275C1805.81 170.148 1806.28 171.077 1807.14 171.349L1821.63 175.975L1807.14 180.6C1806.28 180.872 1805.81 181.801 1806.07 182.674L1807.04 185.836C1807.31 186.709 1808.22 187.196 1809.07 186.923L1832.5 179.445L1855.93 186.923C1856.78 187.196 1857.69 186.709 1857.96 185.836L1858.93 182.674C1859.19 181.801 1858.72 180.873 1857.86 180.6ZM1832.5 167.125C1840.73 167.125 1847.41 160.451 1847.41 152.219C1847.41 148.773 1843.95 141.664 1839.12 137.312C1837.74 138.561 1836.49 139.875 1835.38 141.192C1833.57 138.763 1831.32 136.299 1828.77 134C1822.23 139.898 1817.59 147.583 1817.59 152.219C1817.59 160.451 1824.27 167.125 1832.5 167.125ZM1828.83 143.573C1829.26 144.1 1835.08 151.861 1835.08 151.861L1838.79 147.438C1839.05 147.891 1839.29 148.334 1839.5 148.759C1841.23 152.209 1840.5 156.625 1837.39 158.903C1836.02 159.906 1834.33 160.5 1832.5 160.5C1827.93 160.5 1824.22 157.344 1824.22 152.219C1824.22 149.666 1825.76 147.417 1828.83 143.573ZM522.811 115.687L548.193 144.495C550.099 146.657 550.531 149.617 549.324 152.218C548.133 154.781 545.512 156.437 542.649 156.437H499.167V164.22L508.791 179.629C510.481 183.016 508.022 187.002 504.244 187.002H473.757C469.98 187.002 467.521 183.016 469.211 179.629L478.834 164.22V159.999H445.001V166.875L453.52 180.488C455.016 183.48 452.839 187.002 449.495 187.002H422.507C419.162 187.002 416.986 183.48 418.482 180.488L427.001 166.875V159.999H388.509C385.975 159.999 383.655 158.536 382.6 156.272C381.531 153.974 381.914 151.359 383.601 149.449L406.07 123.999H397.456C394.919 123.999 392.68 122.592 391.611 120.328C390.545 118.064 390.897 115.474 392.531 113.567L414.508 87.9987H406.382C403.823 87.9987 401.514 86.494 400.513 84.1709C399.526 81.8843 399.99 79.2237 401.705 77.3984L432.722 44.3572C434.42 42.5431 437.584 42.5431 439.28 44.3572L453.487 59.4925L485.296 25.5367C487.215 23.4832 490.789 23.4832 492.705 25.5367L527.739 62.9375C529.677 65.0037 530.204 68.0154 529.086 70.6036C527.955 73.2333 525.35 74.9365 522.459 74.9365H513.28L538.103 103.872C539.955 106.034 540.352 108.969 539.145 111.529C537.937 114.095 535.405 115.687 532.543 115.687H522.811ZM171.038 175H173.992C174.566 175 175.053 175.482 174.996 176.053C174.371 182.188 168.348 187 161.011 187H156.99C149.652 187 143.629 182.188 143.005 176.053C142.946 175.482 143.434 175 144.008 175H146.962C150.898 175 154.451 176.389 157 178.62V171C154.878 171 152.844 170.157 151.343 168.657C149.843 167.157 149 165.122 149 163V157L154 160L159.071 155L164 160L169 157V163C169 165.122 168.157 167.157 166.657 168.657C165.157 170.157 163.122 171 161 171V178.62C163.55 176.389 167.101 175 171.038 175ZM97.9921 175H95.0383C91.1008 175 87.5496 176.389 85.0002 178.62V171C87.1219 171 89.1568 170.157 90.657 168.657C92.1573 167.157 93.0002 165.122 93.0002 163V157L88.0002 160L83.0714 155L78.0002 160L73.0002 157V163C73.0002 165.122 73.843 167.157 75.3433 168.657C76.8436 170.157 78.8785 171 81.0002 171V178.62C78.4508 176.389 74.8983 175 70.9621 175H68.0083C67.4339 175 66.9458 175.482 67.0046 176.053C67.6289 182.188 73.6521 187 80.9896 187H85.0108C92.3483 187 98.3714 182.188 98.9958 176.053C99.0533 175.482 98.5664 175 97.9921 175ZM57.0383 175H59.9921C60.5664 175 61.0533 175.482 60.9958 176.053C60.3714 182.188 54.3483 187 47.0108 187H42.9896C35.6521 187 29.6289 182.188 29.0046 176.053C28.9458 175.482 29.4339 175 30.0083 175H32.9621C36.8983 175 40.4508 176.389 43.0002 178.62V171C40.8785 171 38.8436 170.157 37.3433 168.657C35.843 167.157 35.0002 165.122 35.0002 163V157L40.0002 160L45.0714 155L50.0002 160L55.0002 157V163C55.0002 165.122 54.1573 167.157 52.657 168.657C51.1568 170.157 49.1219 171 47.0002 171V178.62C49.5496 176.389 53.1008 175 57.0383 175ZM135.992 175H133.038C129.101 175 125.55 176.389 123 178.62V171C125.122 171 127.157 170.157 128.657 168.657C130.157 167.157 131 165.122 131 163V157L126 160L121.071 155L116 160L111 157V163C111 165.122 111.843 167.157 113.343 168.657C114.844 170.157 116.878 171 119 171V178.62C116.451 176.389 112.898 175 108.962 175H106.008C105.434 175 104.946 175.482 105.005 176.053C105.629 182.188 111.652 187 118.99 187H123.011C130.348 187 136.371 182.188 136.996 176.053C137.053 175.482 136.566 175 135.992 175ZM1953.42 173.125H1956.83C1957.5 173.125 1958.06 173.683 1957.99 174.342C1957.27 181.436 1950.31 187 1941.82 187H1937.17C1928.69 187 1921.73 181.436 1921 174.342C1920.94 173.683 1921.5 173.125 1922.16 173.125H1925.58C1930.13 173.125 1934.24 174.731 1937.19 177.311V168.5C1934.73 168.5 1932.38 167.525 1930.65 165.791C1928.91 164.056 1927.94 161.703 1927.94 159.25V152.312L1933.72 155.781L1939.58 150L1945.28 155.781L1951.06 152.312V159.25C1951.06 161.703 1950.09 164.056 1948.35 165.791C1946.62 167.525 1944.26 168.5 1941.81 168.5V177.311C1944.76 174.731 1948.87 173.125 1953.42 173.125ZM1998.83 173.125H1995.42C1990.87 173.125 1986.76 174.731 1983.81 177.311V168.5C1986.26 168.5 1988.62 167.525 1990.35 165.791C1992.09 164.056 1993.06 161.703 1993.06 159.25V152.312L1987.28 155.781L1981.58 150L1975.72 155.781L1969.94 152.312V159.25C1969.94 161.703 1970.91 164.056 1972.65 165.791C1974.38 167.525 1976.73 168.5 1979.19 168.5V177.311C1976.24 174.731 1972.13 173.125 1967.58 173.125H1964.16C1963.5 173.125 1962.94 173.683 1963 174.342C1963.73 181.436 1970.69 187 1979.17 187H1983.82C1992.31 187 1999.27 181.436 1999.99 174.342C2000.06 173.683 1999.5 173.125 1998.83 173.125ZM881.1 186.842C878.288 186.14 876.578 183.291 877.281 180.475L882.951 157.799L891.61 166.458L887.469 183.023C886.87 185.407 884.731 186.998 882.38 186.998C881.956 186.998 881.528 186.951 881.1 186.842ZM886.476 122.195L879.723 148.299C879.364 149.681 877.906 150.521 876.464 150.176L866.036 147.674C864.595 147.328 863.721 145.929 864.08 144.547L868.226 128.448C870.026 121.541 877.322 117.342 884.521 119.068C885.961 119.414 886.836 120.814 886.476 122.195ZM921.75 129.25H924.375C925.825 129.25 927 130.425 926.998 131.875V184.377C926.998 185.827 925.823 187.002 924.373 187.002H921.748C920.298 187.002 919.123 185.827 919.123 184.377V145.002H911.248C909.857 145.002 908.521 144.447 907.537 143.463L903.857 139.783L900.594 152.837C900.583 152.879 900.565 152.915 900.546 152.951L900.541 152.96C900.522 152.995 900.504 153.03 900.492 153.069L908.174 160.75C910.157 162.734 911.25 165.37 911.25 168.174V181.75C911.25 184.649 908.899 187 906 187C903.101 187 900.75 184.649 900.75 181.75V168.174L886.539 153.963C885.898 153.322 885.433 152.525 885.191 151.652C884.949 150.778 884.938 149.856 885.157 148.977L889.574 131.304C890.65 127.002 894.497 124 898.93 124C901.506 124 903.929 125.002 905.749 126.825L913.424 134.5H919.125V131.875C919.125 130.425 920.299 129.25 921.75 129.25ZM911.25 110.875C911.25 115.224 907.724 118.75 903.375 118.75C899.025 118.75 895.5 115.224 895.5 110.875C895.5 106.526 899.025 103 903.375 103C907.724 103 911.25 106.526 911.25 110.875ZM1776.75 170H1770.19L1706.5 82.277L1720.69 62.7403C1722.07 60.8411 1721.65 58.1822 1719.75 56.8036L1712.87 51.8125C1710.97 50.4339 1708.31 50.8536 1706.93 52.7554L1696 67.8137L1685.06 52.7528C1683.69 50.8536 1681.03 50.4312 1679.13 51.8098L1672.25 56.8036C1670.35 58.1822 1669.93 60.8411 1671.31 62.7403L1685.5 82.277L1621.81 170H1615.25C1612.9 170 1611 171.902 1611 174.25V182.75C1611 185.098 1612.9 187 1615.25 187H1776.75C1779.1 187 1781 185.098 1781 182.75V174.25C1781 171.902 1779.1 170 1776.75 170ZM1696 127.5L1726.91 170H1665.09L1696 127.5ZM1031.19 100.01L1036.43 105.255C1037.19 106.012 1037.19 107.238 1036.43 107.996L1031.19 113.24C1030.46 113.967 1029.48 114.375 1028.45 114.375H981.783C980.178 114.375 978.876 113.073 978.876 111.469V101.781C978.876 100.177 980.178 98.875 981.783 98.875H1002.13V96.9375C1002.13 95.867 1002.99 95 1004.06 95H1007.94C1009.01 95 1009.88 95.867 1009.88 96.9375V98.875H1028.45C1029.48 98.875 1030.46 99.2831 1031.19 100.01ZM1004.06 187C1002.99 187 1002.13 186.133 1002.13 185.062V141.5H1009.88V185.062C1009.88 186.133 1009.01 187 1007.94 187H1004.06ZM1009.88 122.125H1030.22C1031.82 122.125 1033.13 123.427 1033.13 125.031V134.719C1033.13 136.323 1031.82 137.625 1030.22 137.625H983.554C982.526 137.625 981.54 137.217 980.814 136.49L975.569 131.246C974.812 130.489 974.812 129.262 975.569 128.505L980.814 123.26C981.542 122.533 982.526 122.125 983.554 122.125H1002.13V118.25H1009.88V122.125Z" fill="#1C1C1C"/>
</svg>
