<svg width="2000" height="153" viewBox="0 0 2000 153" fill="none" xmlns="http://www.w3.org/2000/svg">
<path fill-rule="evenodd" clip-rule="evenodd" d="M278.486 135.257L251.627 104.501H262.394C270.052 104.501 274.209 95.832 269.334 90.1023L240.948 57.0007H254.348C260.719 57.0007 264.189 50.321 260.121 45.9273L219.772 2.43507C216.781 -0.800867 211.217 -0.800867 208.226 2.43507L190.99 21.0269L182.883 12.2754C180.093 9.25236 174.903 9.25236 172.113 12.2754L134.502 52.9063C130.707 57.011 133.944 63.2512 139.887 63.2512H152.387L125.88 94.175C121.332 99.5277 125.21 107.626 132.353 107.626H142.398L117.342 136.359C112.041 142.433 116.282 152.001 124.234 152.001H230.735C230.767 152.001 230.799 152.001 230.832 152.001H271.068C279.623 152.001 284.139 141.729 278.486 135.257ZM1536.38 95.1235L1556.56 118.099C1558.08 119.824 1558.42 122.185 1557.46 124.259C1556.52 126.303 1554.43 127.624 1552.16 127.624H1517.58V133.832L1525.24 146.121C1526.58 148.822 1524.62 152.001 1521.62 152.001H1497.38C1494.38 152.001 1492.42 148.822 1493.77 146.121L1501.42 133.832V127.624H1466.85C1464.57 127.624 1462.49 126.303 1461.54 124.259C1460.58 122.185 1460.92 119.824 1462.44 118.099L1482.62 95.1235H1474.88C1472.6 95.1235 1470.59 93.854 1469.63 91.81C1468.67 89.7661 1468.99 87.4276 1470.46 85.7061L1490.2 62.6235H1482.9C1480.6 62.6235 1478.53 61.2651 1477.63 59.1678C1476.74 57.1036 1477.16 54.7016 1478.7 53.0538L1506.56 23.2249C1508.08 21.5872 1510.92 21.5872 1512.45 23.2249L1540.3 53.0538C1541.84 54.7016 1542.26 57.1036 1541.37 59.1678C1540.47 61.2651 1538.4 62.6235 1536.1 62.6235H1528.8L1548.54 85.701C1550.01 87.4251 1550.33 89.7661 1549.37 91.8075C1548.41 93.854 1546.4 95.1235 1544.12 95.1235H1536.38ZM1955.96 138.341L1934.11 113.251H1942.87C1949.09 113.251 1952.48 106.179 1948.51 101.505L1925.42 74.5007H1936.32C1941.5 74.5007 1944.33 69.0515 1941.02 65.4671L1908.19 29.9866C1905.76 27.3468 1901.24 27.3468 1898.8 29.9866L1877.47 53.0674L1863.39 37.858C1861.12 35.3885 1856.88 35.3885 1854.61 37.858L1823.91 71.0494C1820.82 74.4026 1823.46 79.5002 1828.31 79.5002H1838.51L1816.88 104.762C1813.17 109.135 1816.33 115.75 1822.16 115.75H1830.36L1809.91 139.222C1805.59 144.184 1809.05 152 1815.54 152H1856.96L1857.05 152.001H1949.92C1956.88 152.001 1960.55 143.621 1955.96 138.341ZM447.087 139.222L426.642 115.75H434.838C440.667 115.75 443.831 109.135 440.12 104.762L418.513 79.5002H428.713C433.563 79.5002 436.204 74.4026 433.108 71.0494L402.394 37.858C400.117 35.3885 395.882 35.3885 393.605 37.858L362.914 71.0494C359.818 74.4026 362.459 79.5002 367.308 79.5002H377.508L355.879 104.762C352.168 109.135 355.333 115.75 361.161 115.75H369.358L348.912 139.222C344.586 144.184 348.047 152 354.536 152H441.441C447.952 152 451.39 144.161 447.087 139.222ZM1222.27 143.375H1220.15C1217.32 143.375 1214.77 144.374 1212.94 145.977V140.5C1214.46 140.5 1215.92 139.894 1217 138.816C1218.08 137.738 1218.69 136.275 1218.69 134.75V130.437L1215.09 132.594L1211.55 129L1207.91 132.594L1204.31 130.437V134.75C1204.31 136.275 1204.92 137.738 1206 138.816C1207.07 139.894 1208.54 140.5 1210.06 140.5V145.977C1208.23 144.374 1205.68 143.375 1202.85 143.375H1200.72C1200.31 143.375 1199.96 143.722 1200 144.131C1200.45 148.541 1204.78 152 1210.05 152H1212.94C1218.22 152 1222.55 148.541 1223 144.131C1223.04 143.722 1222.69 143.375 1222.27 143.375ZM1248.15 143.375H1250.27C1250.69 143.375 1251.04 143.722 1251 144.131C1250.55 148.541 1246.22 152 1240.94 152H1238.05C1232.78 152 1228.45 148.541 1228 144.131C1227.96 143.722 1228.31 143.375 1228.72 143.375H1230.85C1233.68 143.375 1236.23 144.374 1238.06 145.977V140.5C1236.54 140.5 1235.07 139.894 1234 138.816C1232.92 137.738 1232.31 136.275 1232.31 134.75V130.437L1235.91 132.594L1239.55 129L1243.09 132.594L1246.69 130.437V134.75C1246.69 136.275 1246.08 137.738 1245 138.816C1243.92 139.894 1242.46 140.5 1240.94 140.5V145.977C1242.77 144.374 1245.32 143.375 1248.15 143.375ZM1278.27 143.375H1276.15C1273.32 143.375 1270.77 144.374 1268.94 145.977V140.5C1270.46 140.5 1271.92 139.894 1273 138.816C1274.08 137.738 1274.69 136.275 1274.69 134.75V130.437L1271.09 132.594L1267.55 129L1263.91 132.594L1260.31 130.437V134.75C1260.31 136.275 1260.92 137.738 1262 138.816C1263.07 139.894 1264.54 140.5 1266.06 140.5V145.977C1264.23 144.374 1261.68 143.375 1258.85 143.375H1256.72C1256.31 143.375 1255.96 143.722 1256 144.131C1256.45 148.541 1260.78 152 1266.05 152H1268.94C1274.22 152 1278.55 148.541 1279 144.131C1279.04 143.722 1278.69 143.375 1278.27 143.375ZM824.563 118.099L804.383 95.1235H812.12C814.396 95.1235 816.409 93.854 817.369 91.8075C818.329 89.7661 818.013 87.4251 816.541 85.701L796.805 62.6235H804.103C806.401 62.6235 808.473 61.2651 809.372 59.1678C810.261 57.1036 809.842 54.7016 808.301 53.0538L780.446 23.2249C778.923 21.5872 776.081 21.5872 774.555 23.2249L754.963 44.2035L743.734 32.1398C742.32 30.6155 739.684 30.6155 738.268 32.1398L712.421 59.9037C710.992 61.4374 710.605 63.6731 711.427 65.5944C712.262 67.5465 714.186 68.8109 716.319 68.8109H723.09L704.776 90.2955C703.414 91.8978 703.121 94.0743 704.009 95.9768C704.9 97.8792 706.766 99.0609 708.88 99.0609H716.059L697.334 120.446C695.928 122.051 695.609 124.249 696.5 126.18C697.379 128.082 699.313 129.311 701.424 129.311H733.501V135.089L726.402 146.527C725.155 149.042 726.969 152.001 729.756 152.001H752.246C755.033 152.001 756.847 149.042 755.6 146.527L748.501 135.089V129.311H769.417V133.832L761.766 146.121C760.422 148.822 762.377 152.001 765.381 152.001H789.621C792.624 152.001 794.579 148.822 793.236 146.121L785.584 133.832V127.624H820.156C822.432 127.624 824.516 126.303 825.463 124.259C826.423 122.185 826.079 119.824 824.563 118.099ZM1083.33 110.235L1126.22 74.9803C1126.73 74.5748 1127.36 74.3536 1128 74.3536C1128.65 74.3536 1129.28 74.5748 1129.78 74.9803L1172.66 110.21V148.285C1172.66 149.27 1172.27 150.215 1171.57 150.912C1170.87 151.609 1169.93 152 1168.94 152L1142.88 151.928C1142.39 151.928 1141.91 151.832 1141.45 151.644C1141 151.457 1140.59 151.182 1140.25 150.836C1139.9 150.49 1139.63 150.079 1139.44 149.627C1139.25 149.175 1139.16 148.691 1139.16 148.202V125.997C1139.16 125.012 1138.77 124.067 1138.07 123.37C1137.37 122.674 1136.42 122.282 1135.44 122.282H1120.55C1119.56 122.282 1118.62 122.674 1117.92 123.37C1117.22 124.067 1116.83 125.012 1116.83 125.997V148.218C1116.83 149.2 1116.44 150.142 1115.74 150.838C1115.05 151.534 1114.11 151.928 1113.12 151.933L1087.06 152C1086.07 152 1085.12 151.609 1084.43 150.912C1083.73 150.215 1083.33 149.27 1083.33 148.285V110.235ZM1174.52 82.9437L1193.97 98.9425C1194.25 99.174 1194.49 99.4597 1194.67 99.7828C1194.84 100.106 1194.95 100.46 1194.99 100.826C1195.02 101.191 1194.99 101.56 1194.88 101.911C1194.77 102.263 1194.6 102.589 1194.36 102.873L1188.43 110.07C1188.2 110.352 1187.91 110.586 1187.59 110.757C1187.26 110.929 1186.91 111.035 1186.54 111.069C1186.18 111.103 1185.81 111.066 1185.46 110.958C1185.11 110.851 1184.78 110.675 1184.5 110.442L1129.78 65.4614C1129.28 65.0559 1128.65 64.8347 1128 64.8347C1127.36 64.8347 1126.73 65.0559 1126.22 65.4614L1071.51 110.442C1071.22 110.675 1070.9 110.85 1070.55 110.958C1070.19 111.065 1069.83 111.102 1069.46 111.067C1069.1 111.032 1068.74 110.925 1068.42 110.753C1068.09 110.581 1067.81 110.346 1067.57 110.063L1061.64 102.866C1061.41 102.584 1061.23 102.259 1061.12 101.909C1061.02 101.559 1060.98 101.192 1061.01 100.827C1061.05 100.463 1061.15 100.109 1061.32 99.7855C1061.5 99.4621 1061.73 99.1756 1062.01 98.9425L1120.9 50.5422C1122.89 48.9008 1125.4 48.0033 1127.99 48.0033C1130.58 48.0033 1133.09 48.9008 1135.09 50.5422L1155.91 67.6438V50.786C1155.91 50.0471 1156.21 49.3385 1156.73 48.816C1157.25 48.2935 1157.96 48 1158.7 48H1171.73C1172.47 48 1173.18 48.2935 1173.7 48.816C1174.23 49.3385 1174.52 50.0471 1174.52 50.786V82.9437ZM329 136.687C330.763 136.687 332.398 136.158 333.776 135.267L337.46 146.256C337.685 146.926 337.8 147.628 337.8 148.335V150.906C337.8 151.511 337.308 152 336.7 152H334.5C333.892 152 333.4 151.511 333.4 150.906V148.332L333.287 147.641L330.903 140.53L320.2 147.625H324.6C325.815 147.625 326.8 148.605 326.8 149.812V150.906C326.8 151.511 326.308 152 325.7 152H309.2C305.56 152 302.6 149.056 302.6 145.437V129.031C302.6 128.428 302.107 127.937 301.5 127.937C300.893 127.937 300.4 128.428 300.4 129.031V132.312C300.4 133.52 299.415 134.5 298.2 134.5C296.985 134.5 296 133.52 296 132.312V129.031C296 126.016 298.467 123.562 301.5 123.562C304.532 123.562 307 126.016 307 129.031V145.437C307 146.643 307.987 147.625 309.2 147.625V145.437C309.2 138.332 314.075 132.374 320.676 130.646C321.83 134.14 325.104 136.687 329 136.687ZM335.196 121.375H336.7C338.522 121.375 340 122.844 340 124.656C340 126.468 338.522 127.937 336.7 127.937H335.6C335.6 131.562 332.645 134.5 329 134.5C325.355 134.5 322.4 131.562 322.4 127.937H321.3C319.477 127.937 318 126.468 318 124.656C318 122.844 319.477 121.375 321.3 121.375H322.804C323.713 118.832 326.13 117 329 117C331.87 117 334.287 118.832 335.196 121.375ZM325.15 124.109C325.15 124.714 325.642 125.203 326.25 125.203C326.858 125.203 327.35 124.714 327.35 124.109C327.35 123.505 326.858 123.016 326.25 123.016C325.642 123.016 325.15 123.505 325.15 124.109ZM330.65 124.109C330.65 124.714 331.142 125.203 331.75 125.203C332.358 125.203 332.85 124.714 332.85 124.109C332.85 123.505 332.358 123.016 331.75 123.016C331.142 123.016 330.65 123.505 330.65 124.109Z" fill="#306F7D"/>
</svg>
