<?xml version="1.0" standalone="no"?>
<!DOCTYPE svg PUBLIC "-//W3C//DTD SVG 20010904//EN"
 "http://www.w3.org/TR/2001/REC-SVG-20010904/DTD/svg10.dtd">
<svg version="1.0" xmlns="http://www.w3.org/2000/svg"
 width="310.000000pt" height="310.000000pt" viewBox="0 0 310.000000 310.000000"
 preserveAspectRatio="xMidYMid meet">
<metadata>
Created by potrace 1.11, written by Peter Selinger 2001-2013
</metadata>
<g transform="translate(0.000000,310.000000) scale(0.100000,-0.100000)"
fill="#000000" stroke="none">
<path d="M2360 2353 c-21 -8 -30 -25 -24 -45 6 -20 9 -20 -249 -19 -179 1
-177 2 -177 -142 0 -88 3 -106 18 -120 17 -15 64 -17 466 -17 l448 0 64 62
c35 33 64 68 64 77 0 9 -27 43 -60 76 l-61 60 -180 2 c-100 1 -183 4 -185 6
-3 2 -7 15 -9 27 -3 13 -10 27 -17 32 -15 9 -75 9 -98 1z"/>
<path d="M1009 2217 c-40 -18 -59 -37 -75 -75 -40 -97 22 -193 125 -195 148
-2 199 199 67 263 -47 22 -78 24 -117 7z"/>
<path d="M619 1940 c-53 -9 -126 -56 -154 -98 -19 -30 -53 -132 -70 -212 -2
-8 -12 -50 -23 -93 -26 -100 -20 -107 103 -136 130 -31 132 -31 148 -13 12 14
54 159 73 252 2 14 8 34 11 45 4 11 8 25 9 30 1 6 12 47 23 93 12 46 19 92 16
102 -9 29 -69 42 -136 30z"/>
<path d="M2332 1908 l3 -33 -185 -3 -185 -2 -62 -62 c-35 -35 -63 -68 -63 -75
0 -18 104 -121 133 -132 12 -4 218 -7 458 -7 354 1 439 4 452 15 14 11 17 33
17 126 0 106 -1 112 -22 123 -15 8 -92 13 -213 15 l-190 2 2 33 2 32 -75 0
-74 0 2 -32z"/>
<path d="M925 1837 c-41 -16 -68 -37 -88 -67 -23 -36 -109 -390 -102 -420 4
-14 68 -87 143 -163 l136 -137 1 -138 c1 -144 8 -171 50 -191 14 -7 -36 -10
-170 -10 l-190 -1 33 20 c17 11 32 21 32 24 0 2 18 76 40 166 l41 162 -73 74
c-40 41 -75 74 -79 74 -3 0 -30 -97 -59 -215 -52 -212 -53 -216 -37 -251 9
-19 27 -39 39 -44 15 -5 -79 -9 -255 -9 -306 -1 -327 -4 -366 -60 -22 -30 -23
-40 -19 -176 3 -137 4 -145 28 -170 14 -15 36 -31 50 -37 16 -6 558 -10 1472
-10 1184 0 1452 3 1475 14 15 7 38 28 50 47 21 31 23 45 23 165 0 112 -3 136
-20 163 -36 61 -50 63 -350 63 -254 0 -270 1 -262 18 5 9 8 192 8 406 l-1 389
-67 2 c-43 1 -68 -2 -69 -9 -6 -54 -3 -775 3 -788 8 -17 -16 -18 -437 -18
l-445 0 13 23 c19 31 18 990 -1 1009 -17 17 -104 13 -118 -6 -6 -9 -10 -29 -9
-46 2 -30 2 -30 -51 -30 l-54 0 -80 81 c-105 105 -157 126 -235 96z m329 -367
c58 0 85 -4 88 -12 2 -7 3 -168 2 -358 -1 -280 1 -349 12 -367 l14 -23 -122 1
c-82 0 -116 3 -101 9 49 20 57 50 56 214 -1 186 -6 201 -112 310 l-80 81 25
100 c26 102 32 127 33 134 1 2 23 -17 51 -43 l49 -46 85 0z"/>
</g>
</svg>
